<svg width="130" height="35" viewBox="0 0 130 35" fill="none" xmlns="http://www.w3.org/2000/svg">
<g clip-path="url(#clip0_442_2021)">
<path opacity="0.3" d="M33.9418 8.87715C33.0237 5.49473 29.506 1.97695 26.1235 1.05889C24.0502 0.541406 21.2714 0.00888672 17.5 0C13.7293 0.00957031 10.9505 0.541406 8.87715 1.05889C5.49473 1.97764 1.97695 5.49473 1.05889 8.87715C0.541406 10.9505 0.00957031 13.7293 0 17.5C0.00957031 21.2714 0.541406 24.0502 1.05889 26.1235C1.97695 29.506 5.49473 33.023 8.87715 33.9418C10.9505 34.4593 13.7307 34.9911 17.5 35.0007C21.2714 34.9911 24.0502 34.4593 26.1235 33.9418C29.506 33.023 33.0237 29.506 33.9418 26.1235C34.4593 24.0502 34.9911 21.27 35.0007 17.5C34.9911 13.7293 34.4593 10.9505 33.9418 8.87715Z" fill="#C4C0BF"/>
<path d="M8.98525 15.3183C8.98525 14.7318 8.5098 14.2563 7.92329 14.2563C7.33678 14.2563 6.86133 14.7318 6.86133 15.3183C6.86133 15.9048 7.33678 16.3803 7.92329 16.3803C8.5098 16.3803 8.98525 15.9048 8.98525 15.3183Z" fill="white"/>
<path d="M17.3007 9.01927C17.8845 8.79232 18.4628 8.58109 19.0261 8.38558C19.7878 8.12375 20.6152 8.12375 21.377 8.38558C23.261 9.03499 25.3199 9.88401 27.195 10.8773C28.3339 11.4747 29.0141 12.684 29.0407 13.8851C29.115 16.2927 29.115 18.7006 29.0407 21.1086C29.0113 22.3131 28.3312 23.5224 27.195 24.1199C25.3199 25.1131 23.261 25.9621 21.377 26.6116C20.6152 26.8734 19.7878 26.8734 19.0261 26.6116C17.5475 26.1037 16.0972 25.5173 14.6812 24.8547H9.88576C9.60547 24.8547 9.33666 24.7434 9.13846 24.5452C8.94026 24.347 8.82892 24.0782 8.82892 23.7979V23.789C8.82892 23.5087 8.94026 23.2399 9.13846 23.0417C9.33666 22.8435 9.60547 22.7322 9.88576 22.7322H11.8149C12.0951 22.7322 12.364 22.6208 12.5622 22.4226C12.7603 22.2244 12.8717 21.9556 12.8717 21.6753V21.6699C12.8717 21.3896 12.7603 21.1208 12.5622 20.9226C12.364 20.7244 12.0951 20.613 11.8149 20.613H6.95724C6.81799 20.613 6.68012 20.5855 6.55154 20.5321C6.42296 20.4786 6.30621 20.4003 6.208 20.3015C6.1098 20.2028 6.03206 20.0857 5.97928 19.9568C5.92649 19.828 5.89968 19.69 5.9004 19.5507V19.5405C5.9004 19.2602 6.01175 18.9914 6.20994 18.7932C6.40814 18.595 6.67695 18.4836 6.95724 18.4836H11.8149C12.0943 18.4836 12.3624 18.3729 12.5605 18.1758C12.7585 17.9786 12.8704 17.711 12.8717 17.4316V17.4206C12.8717 17.2818 12.8444 17.1444 12.7912 17.0162C12.7381 16.888 12.6603 16.7715 12.5622 16.6733C12.464 16.5752 12.3475 16.4974 12.2193 16.4442C12.0911 16.3911 11.9536 16.3638 11.8149 16.3638H10.6726C10.3924 16.3638 10.1237 16.2525 9.92552 16.0545C9.72734 15.8565 9.61592 15.5878 9.61574 15.3076V15.2967C9.61574 15.1579 9.64307 15.0205 9.69618 14.8923C9.74929 14.7641 9.82714 14.6476 9.92528 14.5494C10.0234 14.4513 10.1399 14.3734 10.2681 14.3203C10.3964 14.2672 10.5338 14.2399 10.6726 14.2399H11.8149C11.9536 14.2399 12.0911 14.2125 12.2193 14.1594C12.3475 14.1063 12.464 14.0285 12.5622 13.9303C12.6603 13.8322 12.7381 13.7157 12.7912 13.5875C12.8444 13.4592 12.8717 13.3218 12.8717 13.183V13.1721C12.8724 12.9051 12.772 12.6477 12.5906 12.4518C12.4093 12.2558 12.1604 12.1358 11.8942 12.1159H8.46388C8.18371 12.1158 7.91507 12.0043 7.71703 11.8062C7.51898 11.608 7.40773 11.3393 7.40773 11.0591V11.0482C7.40773 10.768 7.51898 10.4993 7.71703 10.3011C7.91507 10.1029 8.18371 9.99152 8.46388 9.99134H15.025L17.3007 9.01927Z" fill="white"/>
<path d="M17.2996 9.01929C19.8002 9.8396 22.7308 10.9477 25.4774 12.3046C25.7393 12.4336 25.9628 12.6289 26.1256 12.8712C26.2884 13.1135 26.3847 13.3943 26.4051 13.6855C26.4796 15.0527 26.5151 16.4595 26.5076 17.8643C26.5098 17.8974 26.503 17.9304 26.488 17.9599C26.473 17.9895 26.4504 18.0144 26.4224 18.0322C26.3944 18.05 26.3622 18.0599 26.3291 18.0609C26.296 18.0619 26.2632 18.054 26.2342 18.0379L25.5711 17.6421C25.5398 17.6236 25.5027 17.6174 25.467 17.6247C25.4314 17.632 25.3998 17.6524 25.3783 17.6818C25.0898 18.0605 24.7932 18.4454 24.4896 18.8323C24.4653 18.8659 24.4308 18.8908 24.3912 18.9033C24.3516 18.9158 24.309 18.9152 24.2698 18.9017C24.2305 18.8881 24.1967 18.8623 24.1732 18.828C24.1498 18.7937 24.138 18.7528 24.1396 18.7113C24.1581 17.3024 24.1444 15.8744 24.0993 14.4935C24.086 14.1928 23.989 13.9017 23.8192 13.6531C23.6494 13.4046 23.4135 13.2084 23.1382 13.0867C20.2787 11.8063 15.0212 9.98862 15.0212 9.98862H15.0137L17.2996 9.01929Z" fill="url(#paint0_linear_442_2021)"/>
</g>
<path d="M44.201 24V10.1818H47.1225V21.5913H53.0465V24H44.201ZM57.8825 24.1957C57.2213 24.1957 56.6321 24.081 56.1148 23.8516C55.5975 23.6177 55.1882 23.2736 54.8868 22.8192C54.5899 22.3604 54.4415 21.7892 54.4415 21.1055C54.4415 20.5297 54.5472 20.0462 54.7586 19.6548C54.97 19.2635 55.2579 18.9486 55.6222 18.7102C55.9866 18.4718 56.4004 18.2919 56.8637 18.1705C57.3315 18.049 57.8218 17.9635 58.3346 17.9141C58.9374 17.8511 59.4231 17.7926 59.792 17.7386C60.1608 17.6802 60.4285 17.5947 60.5949 17.4822C60.7613 17.3698 60.8445 17.2034 60.8445 16.983V16.9425C60.8445 16.5152 60.7096 16.1845 60.4397 15.9506C60.1743 15.7167 59.7965 15.5998 59.3062 15.5998C58.7889 15.5998 58.3773 15.7145 58.0715 15.9439C57.7656 16.1688 57.5632 16.4522 57.4642 16.794L54.8058 16.5781C54.9408 15.9484 55.2062 15.4041 55.602 14.9453C55.9978 14.482 56.5084 14.1267 57.1336 13.8793C57.7633 13.6274 58.492 13.5014 59.3197 13.5014C59.8954 13.5014 60.4465 13.5689 60.9727 13.7038C61.5035 13.8388 61.9736 14.0479 62.3829 14.3313C62.7967 14.6147 63.1228 14.979 63.3612 15.4244C63.5996 15.8652 63.7188 16.3937 63.7188 17.0099V24H60.993V22.5629H60.912C60.7456 22.8867 60.5229 23.1723 60.2441 23.4197C59.9652 23.6626 59.6301 23.8538 59.2387 23.9933C58.8474 24.1282 58.3953 24.1957 57.8825 24.1957ZM58.7057 22.212C59.1285 22.212 59.5019 22.1288 59.8257 21.9624C60.1496 21.7914 60.4037 21.562 60.5882 21.2741C60.7726 20.9863 60.8648 20.6602 60.8648 20.2958V19.196C60.7748 19.2545 60.6511 19.3085 60.4937 19.358C60.3408 19.4029 60.1676 19.4457 59.9742 19.4862C59.7807 19.5221 59.5873 19.5559 59.3939 19.5874C59.2005 19.6143 59.0251 19.6391 58.8676 19.6616C58.5303 19.7111 58.2356 19.7898 57.9838 19.8977C57.7319 20.0057 57.5362 20.1519 57.3968 20.3363C57.2573 20.5162 57.1876 20.7411 57.1876 21.011C57.1876 21.4023 57.3293 21.7015 57.6127 21.9084C57.9005 22.1108 58.2649 22.212 58.7057 22.212ZM74.5716 16.5916L71.9403 16.7536C71.8953 16.5286 71.7986 16.3262 71.6501 16.1463C71.5017 15.9619 71.306 15.8157 71.0631 15.7077C70.8247 15.5953 70.5391 15.5391 70.2062 15.5391C69.7609 15.5391 69.3853 15.6335 69.0795 15.8224C68.7736 16.0069 68.6207 16.2543 68.6207 16.5646C68.6207 16.812 68.7196 17.0212 68.9175 17.1921C69.1154 17.363 69.455 17.5002 69.9363 17.6037L71.8121 17.9815C72.8196 18.1884 73.5708 18.5213 74.0656 18.9801C74.5604 19.4389 74.8078 20.0417 74.8078 20.7884C74.8078 21.4676 74.6076 22.0636 74.2073 22.5763C73.8115 23.0891 73.2672 23.4895 72.5745 23.7773C71.8863 24.0607 71.0924 24.2024 70.1927 24.2024C68.8208 24.2024 67.7278 23.9168 66.9136 23.3455C66.104 22.7698 65.6294 21.9871 65.49 20.9975L68.317 20.8491C68.4025 21.2674 68.6094 21.5868 68.9378 21.8072C69.2661 22.0231 69.6867 22.131 70.1995 22.131C70.7033 22.131 71.1081 22.0343 71.414 21.8409C71.7243 21.643 71.8818 21.3888 71.8863 21.0785C71.8818 20.8176 71.7716 20.6039 71.5557 20.4375C71.3398 20.2666 71.0069 20.1361 70.5571 20.0462L68.7623 19.6886C67.7503 19.4862 66.9968 19.1353 66.502 18.636C66.0117 18.1367 65.7666 17.5002 65.7666 16.7266C65.7666 16.0608 65.9465 15.4873 66.3064 15.006C66.6707 14.5247 67.1813 14.1536 67.838 13.8928C68.4992 13.6319 69.2729 13.5014 70.159 13.5014C71.468 13.5014 72.498 13.7781 73.2492 14.3313C74.0049 14.8846 74.4457 15.638 74.5716 16.5916ZM82.1301 13.6364V15.7955H75.889V13.6364H82.1301ZM77.3059 11.1534H80.1802V20.8153C80.1802 21.0807 80.2207 21.2876 80.3017 21.4361C80.3826 21.58 80.4951 21.6812 80.639 21.7397C80.7875 21.7982 80.9584 21.8274 81.1518 21.8274C81.2868 21.8274 81.4217 21.8162 81.5566 21.7937C81.6916 21.7667 81.795 21.7464 81.867 21.733L82.3191 23.8718C82.1751 23.9168 81.9727 23.9685 81.7118 24.027C81.4509 24.09 81.1338 24.1282 80.7605 24.1417C80.0678 24.1687 79.4605 24.0765 78.9387 23.8651C78.4215 23.6536 78.0189 23.3253 77.731 22.88C77.4431 22.4347 77.3014 21.8724 77.3059 21.1932V11.1534ZM88.4539 10.1818H92.0569L95.8623 19.4659H96.0242L99.8296 10.1818H103.433V24H100.599V15.006H100.484L96.9081 23.9325H94.9784L91.4024 14.9723H91.2877V24H88.4539V10.1818ZM105.786 24V13.6364H108.66V24H105.786ZM107.23 12.3004C106.802 12.3004 106.436 12.1587 106.13 11.8754C105.828 11.5875 105.678 11.2434 105.678 10.843C105.678 10.4472 105.828 10.1076 106.13 9.82422C106.436 9.53634 106.802 9.3924 107.23 9.3924C107.657 9.3924 108.021 9.53634 108.323 9.82422C108.628 10.1076 108.781 10.4472 108.781 10.843C108.781 11.2434 108.628 11.5875 108.323 11.8754C108.021 12.1587 107.657 12.3004 107.23 12.3004ZM113.837 10.1818V24H110.962V10.1818H113.837ZM120.862 24.2024C119.796 24.2024 118.879 23.9865 118.109 23.5547C117.345 23.1184 116.755 22.5021 116.342 21.706C115.928 20.9053 115.721 19.9585 115.721 18.8654C115.721 17.7994 115.928 16.8638 116.342 16.0586C116.755 15.2534 117.338 14.6259 118.089 14.1761C118.845 13.7263 119.731 13.5014 120.748 13.5014C121.431 13.5014 122.068 13.6116 122.657 13.832C123.251 14.0479 123.768 14.3741 124.209 14.8104C124.654 15.2467 125 15.7955 125.248 16.4567C125.495 17.1134 125.619 17.8826 125.619 18.7642V19.5536H116.868V17.7724H122.913C122.913 17.3585 122.823 16.992 122.643 16.6726C122.464 16.3532 122.214 16.1036 121.895 15.9237C121.58 15.7392 121.213 15.647 120.795 15.647C120.358 15.647 119.972 15.7482 119.634 15.9506C119.301 16.1486 119.04 16.4162 118.852 16.7536C118.663 17.0864 118.566 17.4575 118.561 17.8668V19.5604C118.561 20.0732 118.656 20.5162 118.845 20.8896C119.038 21.2629 119.31 21.5508 119.661 21.7532C120.012 21.9556 120.428 22.0568 120.909 22.0568C121.229 22.0568 121.521 22.0118 121.787 21.9219C122.052 21.8319 122.279 21.697 122.468 21.517C122.657 21.3371 122.801 21.1167 122.9 20.8558L125.558 21.0312C125.423 21.67 125.147 22.2277 124.728 22.7045C124.315 23.1768 123.779 23.5457 123.123 23.8111C122.47 24.072 121.717 24.2024 120.862 24.2024Z" fill="white"/>
<defs>
<linearGradient id="paint0_linear_442_2021" x1="26.8098" y1="17.6483" x2="17.0809" y2="7.91939" gradientUnits="userSpaceOnUse">
<stop/>
<stop offset="0.57"/>
<stop offset="1"/>
</linearGradient>
<clipPath id="clip0_442_2021">
<rect width="35" height="35" fill="white"/>
</clipPath>
</defs>
</svg>
